<svg width="1437" height="577" viewBox="0 0 1437 577" fill="none" xmlns="http://www.w3.org/2000/svg">
<g filter="url(#filter0_d_38_1117)">
<mask id="path-1-inside-1_38_1117" fill="white">
<path d="M3.42113 33.8648C-2.93847 33.8648 -4.85959 32.708 -5.02521 32.1296V569H1432.84V33.518C1430.69 34.2121 1425.49 35.1838 1421.91 33.518C1417.44 31.4357 1405.02 27.2713 1403.03 27.2713C1401.04 27.2713 1396.04 19.2881 1390.08 21.7174C1384.12 24.1467 1376.66 16.8619 1374.17 16.8619C1374.17 16.8619 1366.71 14.4357 1362.24 12.0064C1358.66 10.063 1339.81 4.71843 1344.34 10.2723C1332.85 10.2723 1336.94 15.4761 1326.94 13.0469C1316.94 10.6176 1314.51 18.596 1314.51 18.596C1309.97 21.7087 1311.03 23.7996 1308.54 21.7174C1306.06 19.6351 1310.53 24.1451 1308.54 24.1451C1306.56 24.1451 1297.6 24.842 1291.14 27.2713C1284.68 29.7005 1287.26 33.518 1284.28 33.518C1281.3 33.518 1278.32 30.3946 1274.84 29.0065C1271.37 27.6183 1266.89 26.9242 1263.42 27.2713C1259.94 27.6183 1253.48 32.1298 1248.51 33.518C1244.54 34.6285 1235.92 35.3689 1232.11 35.6002L1119.33 38.7236L783.962 29.7005L491.321 36.2943H187.75C180.629 33.7493 165.889 28.3122 163.902 26.9241C161.417 25.1889 157.443 28.6592 155.455 30.0474C153.468 31.4355 147.112 30.0474 143.634 30.0474C140.156 30.0474 138.66 28.3122 136.176 26.9241C133.692 25.5359 133.191 22.0632 130.21 23.7983C127.229 25.5335 127.157 24.1462 122.255 22.411C117.353 20.6758 111.258 19.1637 108.333 17.9024C98.9164 13.8409 87.0588 14.5077 87.3877 12.3532C89.9293 -4.29855 65.5743 14.4341 64.0838 14.4341C62.5933 14.4341 56.5834 19.6364 49.1307 19.6364C41.6781 19.6364 39.1939 32.1296 35.716 30.0474C32.2381 27.9651 26.2759 27.9651 21.8043 28.6592C17.3327 29.3533 11.3706 33.8648 3.42113 33.8648Z"/>
<path d="M324.911 35.9399C311.358 36.0481 298.007 33.688 286.215 29.1044C280.821 26.8353 275.63 24.3471 270.664 21.6565C268.355 20.4323 265.975 19.2081 263.222 18.0351C257.87 14.969 251.113 13.2864 244.138 13.2864C237.158 13.2864 230.406 14.9661 225.049 18.0323C222.67 19.2052 220.436 20.4294 218.127 21.6537C214.406 23.6437 210.686 25.6337 206.591 27.47C193.71 32.9789 178.84 35.9025 163.658 35.9025C148.476 35.9025 133.603 32.9815 120.721 27.4729C116.702 25.6366 113.28 23.6978 109.335 21.7077C106.881 20.3811 104.348 19.0544 101.894 17.7789C96.6702 14.9946 90.2463 13.4829 83.6268 13.4829C77.0119 13.4829 70.5835 14.9946 65.3597 17.7789C62.5319 19.1056 59.9283 20.5348 57.25 21.9612C54.5717 23.3903 49.8088 25.89 45.8639 27.7263C25.4707 36.2244 0.689314 38.2002 -22 33.1356L-16.1202 20.6377C1.29546 24.5124 20.3015 23.0035 35.9642 16.5039C39.5353 14.9209 42.7368 13.1359 46.0089 11.4021C49.2811 9.66828 51.8888 8.23914 55.0115 6.75867C63.4783 2.44833 73.7516 0.119517 84.299 0.119517C94.8421 0.119517 105.111 2.44833 113.578 6.75867C116.406 8.13659 119.159 9.61704 121.837 11.0434C124.516 12.4725 128.386 14.5622 131.957 16.1451C141.711 20.2419 152.927 22.4085 164.362 22.4085C175.802 22.4085 187.017 20.2419 196.772 16.1451C200.418 14.5138 203.694 12.7259 206.966 11.0434C210.238 9.36079 211.878 8.39 214.407 7.11456C223.053 2.49964 233.699 0 244.654 0C255.612 0 266.254 2.50249 274.904 7.1174C277.508 8.39285 279.966 9.71952 282.346 10.995C286.714 13.3893 291.286 15.6014 296.036 17.6256C312.098 23.6469 331.308 24.2704 348.125 19.3082C355.57 16.6975 362.626 13.5857 369.182 10.0244L374.838 7.16601C383.537 2.56815 394.214 0.0713411 405.2 0.0713411C416.184 0.0713411 426.86 2.56815 435.559 7.16601L443.001 10.8899C447.095 13.0849 451.036 15.1233 455.28 17.0108C464.166 20.8201 474.584 22.608 485.044 22.1154L485.713 35.2255C471.366 35.7608 457.14 33.2099 445.011 27.9315C440.098 25.7365 435.634 23.3905 431.394 21.1471L424.622 17.6283C419.165 14.6902 412.43 13.0902 405.496 13.0902C398.561 13.0902 391.826 14.6873 386.374 17.6254L380.868 20.3813C373.318 24.4639 365.192 28.0194 356.609 30.9922C346.701 34.2235 335.877 35.9143 324.911 35.9399Z"/>
<path d="M798.475 35.9399C784.921 36.0481 771.57 33.688 759.778 29.1044C754.384 26.8353 749.194 24.3471 744.227 21.6565C741.918 20.4323 739.539 19.2081 736.786 18.0351C731.433 14.969 724.677 13.2864 717.701 13.2864C710.721 13.2864 703.969 14.9661 698.612 18.0323C696.233 19.2052 693.999 20.4294 691.69 21.6537C687.97 23.6437 684.249 25.6337 680.154 27.47C667.273 32.9789 652.404 35.9025 637.221 35.9025C622.039 35.9025 607.167 32.9815 594.285 27.4729C590.265 25.6366 586.844 23.6978 582.899 21.7077C580.445 20.3811 577.911 19.0544 575.457 17.7789C570.234 14.9946 563.81 13.4829 557.19 13.4829C550.575 13.4829 544.147 14.9946 538.923 17.7789C536.095 19.1056 533.492 20.5348 530.813 21.9612C528.135 23.3903 523.372 25.89 519.427 27.7263C499.034 36.2244 474.478 39.2758 451.563 28.8022L455.382 17.7789C474.478 23.5655 493.865 23.0035 509.527 16.5039C513.099 14.9209 516.3 13.1359 519.572 11.4021C522.844 9.66828 525.452 8.23914 528.575 6.75867C537.042 2.44833 547.315 0.119517 557.862 0.119517C568.405 0.119517 578.674 2.44833 587.141 6.75867C589.969 8.13659 592.722 9.61704 595.401 11.0434C598.079 12.4725 601.949 14.5622 605.52 16.1451C615.274 20.2419 626.49 22.4085 637.925 22.4085C649.366 22.4085 660.581 20.2419 670.335 16.1451C673.981 14.5138 677.257 12.7259 680.529 11.0434C683.802 9.36079 685.442 8.39 687.971 7.11456C696.616 2.49964 707.262 0 718.217 0C729.176 0 739.818 2.50249 748.468 7.1174C751.071 8.39285 753.529 9.71952 755.909 10.995C760.277 13.3893 764.849 15.6014 769.6 17.6256C785.661 23.6469 804.871 24.2704 821.688 19.3082C829.133 16.6975 836.189 13.5857 842.746 10.0244L848.401 7.16601C857.101 2.56815 867.777 0.0713411 878.764 0.0713411C889.747 0.0713411 900.423 2.56815 909.123 7.16601L916.564 10.8899C920.658 13.0849 924.599 15.1233 928.843 17.0108C937.729 20.8201 948.148 22.608 958.608 22.1154L959.276 35.2255C944.93 35.7608 930.703 33.2099 918.574 27.9315C913.662 25.7365 909.198 23.3905 904.958 21.1471L898.185 17.6283C892.729 14.6902 885.993 13.0902 879.059 13.0902C872.124 13.0902 865.389 14.6873 859.937 17.6254L854.431 20.3813C846.882 24.4639 838.755 28.0194 830.173 30.9922C820.265 34.2235 809.441 35.9143 798.475 35.9399Z"/>
<path d="M1272.04 35.9399C1258.48 36.0481 1245.13 33.688 1233.34 29.1044C1227.95 26.8353 1222.76 24.3471 1217.79 21.6565C1215.48 20.4323 1213.1 19.2081 1210.35 18.0351C1205 14.969 1198.24 13.2864 1191.26 13.2864C1184.28 13.2864 1177.53 14.9661 1172.18 18.0323C1169.8 19.2052 1167.56 20.4294 1165.25 21.6537C1161.53 23.6437 1157.81 25.6337 1153.72 27.47C1140.84 32.9789 1125.97 35.9025 1110.78 35.9025C1095.6 35.9025 1080.73 32.9815 1067.85 27.4729C1063.83 25.6366 1060.41 23.6978 1056.46 21.7077C1054.01 20.3811 1051.47 19.0544 1049.02 17.7789C1043.8 14.9946 1037.37 13.4829 1030.75 13.4829C1024.14 13.4829 1017.71 14.9946 1012.49 17.7789C1009.66 19.1056 1007.05 20.5348 1004.38 21.9612C1001.7 23.3903 996.935 25.89 992.991 27.7263C972.597 36.2244 948.041 39.2758 925.127 28.8022L928.946 17.7789C948.041 23.5655 967.428 23.0035 983.091 16.5039C986.662 14.9209 989.863 13.1359 993.136 11.4021C996.408 9.66828 999.015 8.23914 1002.14 6.75867C1010.6 2.44833 1020.88 0.119517 1031.43 0.119517C1041.97 0.119517 1052.24 2.44833 1060.7 6.75867C1063.53 8.13659 1066.29 9.61704 1068.96 11.0434C1071.64 12.4725 1075.51 14.5622 1079.08 16.1451C1088.84 20.2419 1100.05 22.4085 1111.49 22.4085C1122.93 22.4085 1134.14 20.2419 1143.9 16.1451C1147.54 14.5138 1150.82 12.7259 1154.09 11.0434C1157.36 9.36079 1159.01 8.39 1161.53 7.11456C1170.18 2.49964 1180.83 0 1191.78 0C1202.74 0 1213.38 2.50249 1222.03 7.1174C1224.63 8.39285 1227.09 9.71952 1229.47 10.995C1233.84 13.3893 1238.41 15.6014 1243.16 17.6256C1259.22 23.6469 1278.43 24.2704 1295.25 19.3082C1302.7 16.6975 1309.75 13.5857 1316.31 10.0244L1321.96 7.16601C1330.66 2.56815 1341.34 0.0713411 1352.33 0.0713411C1363.31 0.0713411 1373.99 2.56815 1382.69 7.16601L1390.13 10.8899C1394.22 13.0849 1398.16 15.1233 1402.41 17.0108C1411.29 20.8201 1421.71 22.608 1432.17 22.1154C1442.63 21.6229 1432.84 35.2255 1432.84 35.2255C1418.49 35.7608 1404.27 33.2099 1392.14 27.9315C1387.22 25.7365 1382.76 23.3905 1378.52 21.1471L1371.75 17.6283C1366.29 14.6902 1359.56 13.0902 1352.62 13.0902C1345.69 13.0902 1338.95 14.6873 1333.5 17.6254L1327.99 20.3813C1320.45 24.4639 1312.32 28.0194 1303.74 30.9922C1293.83 34.2235 1283 35.9143 1272.04 35.9399Z"/>
</mask>
<path d="M3.42113 33.8648C-2.93847 33.8648 -4.85959 32.708 -5.02521 32.1296V569H1432.84V33.518C1430.69 34.2121 1425.49 35.1838 1421.91 33.518C1417.44 31.4357 1405.02 27.2713 1403.03 27.2713C1401.04 27.2713 1396.04 19.2881 1390.08 21.7174C1384.12 24.1467 1376.66 16.8619 1374.17 16.8619C1374.17 16.8619 1366.71 14.4357 1362.24 12.0064C1358.66 10.063 1339.81 4.71843 1344.34 10.2723C1332.85 10.2723 1336.94 15.4761 1326.94 13.0469C1316.94 10.6176 1314.51 18.596 1314.51 18.596C1309.97 21.7087 1311.03 23.7996 1308.54 21.7174C1306.06 19.6351 1310.53 24.1451 1308.54 24.1451C1306.56 24.1451 1297.6 24.842 1291.14 27.2713C1284.68 29.7005 1287.26 33.518 1284.28 33.518C1281.3 33.518 1278.32 30.3946 1274.84 29.0065C1271.37 27.6183 1266.89 26.9242 1263.42 27.2713C1259.94 27.6183 1253.48 32.1298 1248.51 33.518C1244.54 34.6285 1235.92 35.3689 1232.11 35.6002L1119.33 38.7236L783.962 29.7005L491.321 36.2943H187.75C180.629 33.7493 165.889 28.3122 163.902 26.9241C161.417 25.1889 157.443 28.6592 155.455 30.0474C153.468 31.4355 147.112 30.0474 143.634 30.0474C140.156 30.0474 138.66 28.3122 136.176 26.9241C133.692 25.5359 133.191 22.0632 130.21 23.7983C127.229 25.5335 127.157 24.1462 122.255 22.411C117.353 20.6758 111.258 19.1637 108.333 17.9024C98.9164 13.8409 87.0588 14.5077 87.3877 12.3532C89.9293 -4.29855 65.5743 14.4341 64.0838 14.4341C62.5933 14.4341 56.5834 19.6364 49.1307 19.6364C41.6781 19.6364 39.1939 32.1296 35.716 30.0474C32.2381 27.9651 26.2759 27.9651 21.8043 28.6592C17.3327 29.3533 11.3706 33.8648 3.42113 33.8648Z" fill="#0F0F0F"/>
<path d="M324.911 35.9399C311.358 36.0481 298.007 33.688 286.215 29.1044C280.821 26.8353 275.63 24.3471 270.664 21.6565C268.355 20.4323 265.975 19.2081 263.222 18.0351C257.87 14.969 251.113 13.2864 244.138 13.2864C237.158 13.2864 230.406 14.9661 225.049 18.0323C222.67 19.2052 220.436 20.4294 218.127 21.6537C214.406 23.6437 210.686 25.6337 206.591 27.47C193.71 32.9789 178.84 35.9025 163.658 35.9025C148.476 35.9025 133.603 32.9815 120.721 27.4729C116.702 25.6366 113.28 23.6978 109.335 21.7077C106.881 20.3811 104.348 19.0544 101.894 17.7789C96.6702 14.9946 90.2463 13.4829 83.6268 13.4829C77.0119 13.4829 70.5835 14.9946 65.3597 17.7789C62.5319 19.1056 59.9283 20.5348 57.25 21.9612C54.5717 23.3903 49.8088 25.89 45.8639 27.7263C25.4707 36.2244 0.689314 38.2002 -22 33.1356L-16.1202 20.6377C1.29546 24.5124 20.3015 23.0035 35.9642 16.5039C39.5353 14.9209 42.7368 13.1359 46.0089 11.4021C49.2811 9.66828 51.8888 8.23914 55.0115 6.75867C63.4783 2.44833 73.7516 0.119517 84.299 0.119517C94.8421 0.119517 105.111 2.44833 113.578 6.75867C116.406 8.13659 119.159 9.61704 121.837 11.0434C124.516 12.4725 128.386 14.5622 131.957 16.1451C141.711 20.2419 152.927 22.4085 164.362 22.4085C175.802 22.4085 187.017 20.2419 196.772 16.1451C200.418 14.5138 203.694 12.7259 206.966 11.0434C210.238 9.36079 211.878 8.39 214.407 7.11456C223.053 2.49964 233.699 0 244.654 0C255.612 0 266.254 2.50249 274.904 7.1174C277.508 8.39285 279.966 9.71952 282.346 10.995C286.714 13.3893 291.286 15.6014 296.036 17.6256C312.098 23.6469 331.308 24.2704 348.125 19.3082C355.57 16.6975 362.626 13.5857 369.182 10.0244L374.838 7.16601C383.537 2.56815 394.214 0.0713411 405.2 0.0713411C416.184 0.0713411 426.86 2.56815 435.559 7.16601L443.001 10.8899C447.095 13.0849 451.036 15.1233 455.28 17.0108C464.166 20.8201 474.584 22.608 485.044 22.1154L485.713 35.2255C471.366 35.7608 457.14 33.2099 445.011 27.9315C440.098 25.7365 435.634 23.3905 431.394 21.1471L424.622 17.6283C419.165 14.6902 412.43 13.0902 405.496 13.0902C398.561 13.0902 391.826 14.6873 386.374 17.6254L380.868 20.3813C373.318 24.4639 365.192 28.0194 356.609 30.9922C346.701 34.2235 335.877 35.9143 324.911 35.9399Z" fill="#0F0F0F"/>
<path d="M798.475 35.9399C784.921 36.0481 771.57 33.688 759.778 29.1044C754.384 26.8353 749.194 24.3471 744.227 21.6565C741.918 20.4323 739.539 19.2081 736.786 18.0351C731.433 14.969 724.677 13.2864 717.701 13.2864C710.721 13.2864 703.969 14.9661 698.612 18.0323C696.233 19.2052 693.999 20.4294 691.69 21.6537C687.97 23.6437 684.249 25.6337 680.154 27.47C667.273 32.9789 652.404 35.9025 637.221 35.9025C622.039 35.9025 607.167 32.9815 594.285 27.4729C590.265 25.6366 586.844 23.6978 582.899 21.7077C580.445 20.3811 577.911 19.0544 575.457 17.7789C570.234 14.9946 563.81 13.4829 557.19 13.4829C550.575 13.4829 544.147 14.9946 538.923 17.7789C536.095 19.1056 533.492 20.5348 530.813 21.9612C528.135 23.3903 523.372 25.89 519.427 27.7263C499.034 36.2244 474.478 39.2758 451.563 28.8022L455.382 17.7789C474.478 23.5655 493.865 23.0035 509.527 16.5039C513.099 14.9209 516.3 13.1359 519.572 11.4021C522.844 9.66828 525.452 8.23914 528.575 6.75867C537.042 2.44833 547.315 0.119517 557.862 0.119517C568.405 0.119517 578.674 2.44833 587.141 6.75867C589.969 8.13659 592.722 9.61704 595.401 11.0434C598.079 12.4725 601.949 14.5622 605.52 16.1451C615.274 20.2419 626.49 22.4085 637.925 22.4085C649.366 22.4085 660.581 20.2419 670.335 16.1451C673.981 14.5138 677.257 12.7259 680.529 11.0434C683.802 9.36079 685.442 8.39 687.971 7.11456C696.616 2.49964 707.262 0 718.217 0C729.176 0 739.818 2.50249 748.468 7.1174C751.071 8.39285 753.529 9.71952 755.909 10.995C760.277 13.3893 764.849 15.6014 769.6 17.6256C785.661 23.6469 804.871 24.2704 821.688 19.3082C829.133 16.6975 836.189 13.5857 842.746 10.0244L848.401 7.16601C857.101 2.56815 867.777 0.0713411 878.764 0.0713411C889.747 0.0713411 900.423 2.56815 909.123 7.16601L916.564 10.8899C920.658 13.0849 924.599 15.1233 928.843 17.0108C937.729 20.8201 948.148 22.608 958.608 22.1154L959.276 35.2255C944.93 35.7608 930.703 33.2099 918.574 27.9315C913.662 25.7365 909.198 23.3905 904.958 21.1471L898.185 17.6283C892.729 14.6902 885.993 13.0902 879.059 13.0902C872.124 13.0902 865.389 14.6873 859.937 17.6254L854.431 20.3813C846.882 24.4639 838.755 28.0194 830.173 30.9922C820.265 34.2235 809.441 35.9143 798.475 35.9399Z" fill="#0F0F0F"/>
<path d="M1272.04 35.9399C1258.48 36.0481 1245.13 33.688 1233.34 29.1044C1227.95 26.8353 1222.76 24.3471 1217.79 21.6565C1215.48 20.4323 1213.1 19.2081 1210.35 18.0351C1205 14.969 1198.24 13.2864 1191.26 13.2864C1184.28 13.2864 1177.53 14.9661 1172.18 18.0323C1169.8 19.2052 1167.56 20.4294 1165.25 21.6537C1161.53 23.6437 1157.81 25.6337 1153.72 27.47C1140.84 32.9789 1125.97 35.9025 1110.78 35.9025C1095.6 35.9025 1080.73 32.9815 1067.85 27.4729C1063.83 25.6366 1060.41 23.6978 1056.46 21.7077C1054.01 20.3811 1051.47 19.0544 1049.02 17.7789C1043.8 14.9946 1037.37 13.4829 1030.75 13.4829C1024.14 13.4829 1017.71 14.9946 1012.49 17.7789C1009.66 19.1056 1007.05 20.5348 1004.38 21.9612C1001.7 23.3903 996.935 25.89 992.991 27.7263C972.597 36.2244 948.041 39.2758 925.127 28.8022L928.946 17.7789C948.041 23.5655 967.428 23.0035 983.091 16.5039C986.662 14.9209 989.863 13.1359 993.136 11.4021C996.408 9.66828 999.015 8.23914 1002.14 6.75867C1010.6 2.44833 1020.88 0.119517 1031.43 0.119517C1041.97 0.119517 1052.24 2.44833 1060.7 6.75867C1063.53 8.13659 1066.29 9.61704 1068.96 11.0434C1071.64 12.4725 1075.51 14.5622 1079.08 16.1451C1088.84 20.2419 1100.05 22.4085 1111.49 22.4085C1122.93 22.4085 1134.14 20.2419 1143.9 16.1451C1147.54 14.5138 1150.82 12.7259 1154.09 11.0434C1157.36 9.36079 1159.01 8.39 1161.53 7.11456C1170.18 2.49964 1180.83 0 1191.78 0C1202.74 0 1213.38 2.50249 1222.03 7.1174C1224.63 8.39285 1227.09 9.71952 1229.47 10.995C1233.84 13.3893 1238.41 15.6014 1243.16 17.6256C1259.22 23.6469 1278.43 24.2704 1295.25 19.3082C1302.7 16.6975 1309.75 13.5857 1316.31 10.0244L1321.96 7.16601C1330.66 2.56815 1341.34 0.0713411 1352.33 0.0713411C1363.31 0.0713411 1373.99 2.56815 1382.69 7.16601L1390.13 10.8899C1394.22 13.0849 1398.16 15.1233 1402.41 17.0108C1411.29 20.8201 1421.71 22.608 1432.17 22.1154C1442.63 21.6229 1432.84 35.2255 1432.84 35.2255C1418.49 35.7608 1404.27 33.2099 1392.14 27.9315C1387.22 25.7365 1382.76 23.3905 1378.52 21.1471L1371.75 17.6283C1366.29 14.6902 1359.56 13.0902 1352.62 13.0902C1345.69 13.0902 1338.95 14.6873 1333.5 17.6254L1327.99 20.3813C1320.45 24.4639 1312.32 28.0194 1303.74 30.9922C1293.83 34.2235 1283 35.9143 1272.04 35.9399Z" fill="#0F0F0F"/>
<path d="M3.42113 33.8648C-2.93847 33.8648 -4.85959 32.708 -5.02521 32.1296V569H1432.84V33.518C1430.69 34.2121 1425.49 35.1838 1421.91 33.518C1417.44 31.4357 1405.02 27.2713 1403.03 27.2713C1401.04 27.2713 1396.04 19.2881 1390.08 21.7174C1384.12 24.1467 1376.66 16.8619 1374.17 16.8619C1374.17 16.8619 1366.71 14.4357 1362.24 12.0064C1358.66 10.063 1339.81 4.71843 1344.34 10.2723C1332.85 10.2723 1336.94 15.4761 1326.94 13.0469C1316.94 10.6176 1314.51 18.596 1314.51 18.596C1309.97 21.7087 1311.03 23.7996 1308.54 21.7174C1306.06 19.6351 1310.53 24.1451 1308.54 24.1451C1306.56 24.1451 1297.6 24.842 1291.14 27.2713C1284.68 29.7005 1287.26 33.518 1284.28 33.518C1281.3 33.518 1278.32 30.3946 1274.84 29.0065C1271.37 27.6183 1266.89 26.9242 1263.42 27.2713C1259.94 27.6183 1253.48 32.1298 1248.51 33.518C1244.54 34.6285 1235.92 35.3689 1232.11 35.6002L1119.33 38.7236L783.962 29.7005L491.321 36.2943H187.75C180.629 33.7493 165.889 28.3122 163.902 26.9241C161.417 25.1889 157.443 28.6592 155.455 30.0474C153.468 31.4355 147.112 30.0474 143.634 30.0474C140.156 30.0474 138.66 28.3122 136.176 26.9241C133.692 25.5359 133.191 22.0632 130.21 23.7983C127.229 25.5335 127.157 24.1462 122.255 22.411C117.353 20.6758 111.258 19.1637 108.333 17.9024C98.9164 13.8409 87.0588 14.5077 87.3877 12.3532C89.9293 -4.29855 65.5743 14.4341 64.0838 14.4341C62.5933 14.4341 56.5834 19.6364 49.1307 19.6364C41.6781 19.6364 39.1939 32.1296 35.716 30.0474C32.2381 27.9651 26.2759 27.9651 21.8043 28.6592C17.3327 29.3533 11.3706 33.8648 3.42113 33.8648Z" stroke="black" stroke-width="2" mask="url(#path-1-inside-1_38_1117)"/>
<path d="M324.911 35.9399C311.358 36.0481 298.007 33.688 286.215 29.1044C280.821 26.8353 275.63 24.3471 270.664 21.6565C268.355 20.4323 265.975 19.2081 263.222 18.0351C257.87 14.969 251.113 13.2864 244.138 13.2864C237.158 13.2864 230.406 14.9661 225.049 18.0323C222.67 19.2052 220.436 20.4294 218.127 21.6537C214.406 23.6437 210.686 25.6337 206.591 27.47C193.71 32.9789 178.84 35.9025 163.658 35.9025C148.476 35.9025 133.603 32.9815 120.721 27.4729C116.702 25.6366 113.28 23.6978 109.335 21.7077C106.881 20.3811 104.348 19.0544 101.894 17.7789C96.6702 14.9946 90.2463 13.4829 83.6268 13.4829C77.0119 13.4829 70.5835 14.9946 65.3597 17.7789C62.5319 19.1056 59.9283 20.5348 57.25 21.9612C54.5717 23.3903 49.8088 25.89 45.8639 27.7263C25.4707 36.2244 0.689314 38.2002 -22 33.1356L-16.1202 20.6377C1.29546 24.5124 20.3015 23.0035 35.9642 16.5039C39.5353 14.9209 42.7368 13.1359 46.0089 11.4021C49.2811 9.66828 51.8888 8.23914 55.0115 6.75867C63.4783 2.44833 73.7516 0.119517 84.299 0.119517C94.8421 0.119517 105.111 2.44833 113.578 6.75867C116.406 8.13659 119.159 9.61704 121.837 11.0434C124.516 12.4725 128.386 14.5622 131.957 16.1451C141.711 20.2419 152.927 22.4085 164.362 22.4085C175.802 22.4085 187.017 20.2419 196.772 16.1451C200.418 14.5138 203.694 12.7259 206.966 11.0434C210.238 9.36079 211.878 8.39 214.407 7.11456C223.053 2.49964 233.699 0 244.654 0C255.612 0 266.254 2.50249 274.904 7.1174C277.508 8.39285 279.966 9.71952 282.346 10.995C286.714 13.3893 291.286 15.6014 296.036 17.6256C312.098 23.6469 331.308 24.2704 348.125 19.3082C355.57 16.6975 362.626 13.5857 369.182 10.0244L374.838 7.16601C383.537 2.56815 394.214 0.0713411 405.2 0.0713411C416.184 0.0713411 426.86 2.56815 435.559 7.16601L443.001 10.8899C447.095 13.0849 451.036 15.1233 455.28 17.0108C464.166 20.8201 474.584 22.608 485.044 22.1154L485.713 35.2255C471.366 35.7608 457.14 33.2099 445.011 27.9315C440.098 25.7365 435.634 23.3905 431.394 21.1471L424.622 17.6283C419.165 14.6902 412.43 13.0902 405.496 13.0902C398.561 13.0902 391.826 14.6873 386.374 17.6254L380.868 20.3813C373.318 24.4639 365.192 28.0194 356.609 30.9922C346.701 34.2235 335.877 35.9143 324.911 35.9399Z" stroke="black" stroke-width="2" mask="url(#path-1-inside-1_38_1117)"/>
<path d="M798.475 35.9399C784.921 36.0481 771.57 33.688 759.778 29.1044C754.384 26.8353 749.194 24.3471 744.227 21.6565C741.918 20.4323 739.539 19.2081 736.786 18.0351C731.433 14.969 724.677 13.2864 717.701 13.2864C710.721 13.2864 703.969 14.9661 698.612 18.0323C696.233 19.2052 693.999 20.4294 691.69 21.6537C687.97 23.6437 684.249 25.6337 680.154 27.47C667.273 32.9789 652.404 35.9025 637.221 35.9025C622.039 35.9025 607.167 32.9815 594.285 27.4729C590.265 25.6366 586.844 23.6978 582.899 21.7077C580.445 20.3811 577.911 19.0544 575.457 17.7789C570.234 14.9946 563.81 13.4829 557.19 13.4829C550.575 13.4829 544.147 14.9946 538.923 17.7789C536.095 19.1056 533.492 20.5348 530.813 21.9612C528.135 23.3903 523.372 25.89 519.427 27.7263C499.034 36.2244 474.478 39.2758 451.563 28.8022L455.382 17.7789C474.478 23.5655 493.865 23.0035 509.527 16.5039C513.099 14.9209 516.3 13.1359 519.572 11.4021C522.844 9.66828 525.452 8.23914 528.575 6.75867C537.042 2.44833 547.315 0.119517 557.862 0.119517C568.405 0.119517 578.674 2.44833 587.141 6.75867C589.969 8.13659 592.722 9.61704 595.401 11.0434C598.079 12.4725 601.949 14.5622 605.52 16.1451C615.274 20.2419 626.49 22.4085 637.925 22.4085C649.366 22.4085 660.581 20.2419 670.335 16.1451C673.981 14.5138 677.257 12.7259 680.529 11.0434C683.802 9.36079 685.442 8.39 687.971 7.11456C696.616 2.49964 707.262 0 718.217 0C729.176 0 739.818 2.50249 748.468 7.1174C751.071 8.39285 753.529 9.71952 755.909 10.995C760.277 13.3893 764.849 15.6014 769.6 17.6256C785.661 23.6469 804.871 24.2704 821.688 19.3082C829.133 16.6975 836.189 13.5857 842.746 10.0244L848.401 7.16601C857.101 2.56815 867.777 0.0713411 878.764 0.0713411C889.747 0.0713411 900.423 2.56815 909.123 7.16601L916.564 10.8899C920.658 13.0849 924.599 15.1233 928.843 17.0108C937.729 20.8201 948.148 22.608 958.608 22.1154L959.276 35.2255C944.93 35.7608 930.703 33.2099 918.574 27.9315C913.662 25.7365 909.198 23.3905 904.958 21.1471L898.185 17.6283C892.729 14.6902 885.993 13.0902 879.059 13.0902C872.124 13.0902 865.389 14.6873 859.937 17.6254L854.431 20.3813C846.882 24.4639 838.755 28.0194 830.173 30.9922C820.265 34.2235 809.441 35.9143 798.475 35.9399Z" stroke="black" stroke-width="2" mask="url(#path-1-inside-1_38_1117)"/>
<path d="M1272.04 35.9399C1258.48 36.0481 1245.13 33.688 1233.34 29.1044C1227.95 26.8353 1222.76 24.3471 1217.79 21.6565C1215.48 20.4323 1213.1 19.2081 1210.35 18.0351C1205 14.969 1198.24 13.2864 1191.26 13.2864C1184.28 13.2864 1177.53 14.9661 1172.18 18.0323C1169.8 19.2052 1167.56 20.4294 1165.25 21.6537C1161.53 23.6437 1157.81 25.6337 1153.72 27.47C1140.84 32.9789 1125.97 35.9025 1110.78 35.9025C1095.6 35.9025 1080.73 32.9815 1067.85 27.4729C1063.83 25.6366 1060.41 23.6978 1056.46 21.7077C1054.01 20.3811 1051.47 19.0544 1049.02 17.7789C1043.8 14.9946 1037.37 13.4829 1030.75 13.4829C1024.14 13.4829 1017.71 14.9946 1012.49 17.7789C1009.66 19.1056 1007.05 20.5348 1004.38 21.9612C1001.7 23.3903 996.935 25.89 992.991 27.7263C972.597 36.2244 948.041 39.2758 925.127 28.8022L928.946 17.7789C948.041 23.5655 967.428 23.0035 983.091 16.5039C986.662 14.9209 989.863 13.1359 993.136 11.4021C996.408 9.66828 999.015 8.23914 1002.14 6.75867C1010.6 2.44833 1020.88 0.119517 1031.43 0.119517C1041.97 0.119517 1052.24 2.44833 1060.7 6.75867C1063.53 8.13659 1066.29 9.61704 1068.96 11.0434C1071.64 12.4725 1075.51 14.5622 1079.08 16.1451C1088.84 20.2419 1100.05 22.4085 1111.49 22.4085C1122.93 22.4085 1134.14 20.2419 1143.9 16.1451C1147.54 14.5138 1150.82 12.7259 1154.09 11.0434C1157.36 9.36079 1159.01 8.39 1161.53 7.11456C1170.18 2.49964 1180.83 0 1191.78 0C1202.74 0 1213.38 2.50249 1222.03 7.1174C1224.63 8.39285 1227.09 9.71952 1229.47 10.995C1233.84 13.3893 1238.41 15.6014 1243.16 17.6256C1259.22 23.6469 1278.43 24.2704 1295.25 19.3082C1302.7 16.6975 1309.75 13.5857 1316.31 10.0244L1321.96 7.16601C1330.66 2.56815 1341.34 0.0713411 1352.33 0.0713411C1363.31 0.0713411 1373.99 2.56815 1382.69 7.16601L1390.13 10.8899C1394.22 13.0849 1398.16 15.1233 1402.41 17.0108C1411.29 20.8201 1421.71 22.608 1432.17 22.1154C1442.63 21.6229 1432.84 35.2255 1432.84 35.2255C1418.49 35.7608 1404.27 33.2099 1392.14 27.9315C1387.22 25.7365 1382.76 23.3905 1378.52 21.1471L1371.75 17.6283C1366.29 14.6902 1359.56 13.0902 1352.62 13.0902C1345.69 13.0902 1338.95 14.6873 1333.5 17.6254L1327.99 20.3813C1320.45 24.4639 1312.32 28.0194 1303.74 30.9922C1293.83 34.2235 1283 35.9143 1272.04 35.9399Z" stroke="black" stroke-width="2" mask="url(#path-1-inside-1_38_1117)"/>
</g>
<defs>
<filter id="filter0_d_38_1117" x="-26" y="0" width="1467" height="577" filterUnits="userSpaceOnUse" color-interpolation-filters="sRGB">
<feFlood flood-opacity="0" result="BackgroundImageFix"/>
<feColorMatrix in="SourceAlpha" type="matrix" values="0 0 0 0 0 0 0 0 0 0 0 0 0 0 0 0 0 0 127 0" result="hardAlpha"/>
<feOffset dy="4"/>
<feGaussianBlur stdDeviation="2"/>
<feComposite in2="hardAlpha" operator="out"/>
<feColorMatrix type="matrix" values="0 0 0 0 0 0 0 0 0 0 0 0 0 0 0 0 0 0 0.25 0"/>
<feBlend mode="normal" in2="BackgroundImageFix" result="effect1_dropShadow_38_1117"/>
<feBlend mode="normal" in="SourceGraphic" in2="effect1_dropShadow_38_1117" result="shape"/>
</filter>
</defs>
</svg>
