<svg width="45" height="32" viewBox="0 0 45 32" fill="none" xmlns="http://www.w3.org/2000/svg">
<path d="M25.5676 7.86489C26.3494 7.08114 26.8332 5.99963 26.8332 4.80473C26.8332 2.41172 24.8931 0.471619 22.5 0.471619C20.9872 0.471619 19.657 1.2483 18.882 2.42328C18.6761 2.6295 1.42681 23.8897 1.26556 24.1341C0.483742 24.9179 0 25.9997 0 27.194C0 29.5873 1.9401 31.5274 4.33311 31.5274C5.846 31.5274 7.17613 30.751 7.95121 29.5757C8.15711 29.3695 25.4064 8.10901 25.5676 7.86489Z" fill="white"/>
<path d="M35.5483 17.9538C36.3324 17.1694 36.8171 16.0866 36.8171 14.8901C36.8171 12.4971 34.877 10.557 32.484 10.557C30.9704 10.557 29.6397 11.3344 28.8646 12.5103C28.6571 12.7181 19.5974 23.8856 19.4352 24.1317C18.6511 24.916 18.1664 25.9988 18.1664 27.195C18.1664 29.5884 20.1065 31.5285 22.4995 31.5285C24.013 31.5285 25.3438 30.7511 26.1186 29.5752C26.3261 29.3677 35.3861 18.1999 35.5483 17.9538Z" fill="white"/>
<path d="M45 4.80473C45 7.19806 43.0599 9.13784 40.6668 9.13784C38.2735 9.13784 36.3337 7.19806 36.3337 4.80473C36.3337 2.41172 38.2735 0.471619 40.6668 0.471619C43.0599 0.471619 45 2.41172 45 4.80473Z" fill="white"/>
<path d="M8.66622 4.80473C8.66622 7.19806 6.72612 9.13784 4.33311 9.13784C1.9401 9.13784 0 7.19806 0 4.80473C0 2.41172 1.9401 0.471619 4.33311 0.471619C6.72612 0.471619 8.66622 2.41172 8.66622 4.80473Z" fill="white"/>
</svg>
